<svg xmlns="http://www.w3.org/2000/svg" viewBox="0 0 100 200">
  <!-- Scoubidou plat — tressage à plat, orange et violet -->
  <circle cx="50" cy="15" r="10" fill="none" stroke="#C0C0C0" stroke-width="3"/>
  <g transform="translate(25, 25)">
    <!-- Flat zigzag braid -->
    <path d="M 10 0 L 40 12 L 10 24 L 40 36 L 10 48 L 40 60 L 10 72 L 40 84 L 10 96 L 40 108 L 10 120" fill="none" stroke="#FF6600" stroke-width="6" stroke-linecap="round" stroke-linejoin="round"/>
    <path d="M 40 0 L 10 12 L 40 24 L 10 36 L 40 48 L 10 60 L 40 72 L 10 84 L 40 96 L 10 108 L 40 120" fill="none" stroke="#8B00FF" stroke-width="6" stroke-linecap="round" stroke-linejoin="round"/>
  </g>
  <path d="M 38 148 Q 32 165 28 180" fill="none" stroke="#FF6600" stroke-width="3" stroke-linecap="round"/>
  <path d="M 44 148 Q 40 168 38 185" fill="none" stroke="#8B00FF" stroke-width="3" stroke-linecap="round"/>
  <path d="M 56 148 Q 60 168 62 185" fill="none" stroke="#FF6600" stroke-width="3" stroke-linecap="round"/>
  <path d="M 62 148 Q 68 165 72 180" fill="none" stroke="#8B00FF" stroke-width="3" stroke-linecap="round"/>
</svg>
