<svg xmlns="http://www.w3.org/2000/svg" viewBox="0 0 100 200">
  <!-- Scoubidou spirale — turquoise et rose, effet spirale -->
  <circle cx="50" cy="15" r="10" fill="none" stroke="#C0C0C0" stroke-width="3"/>
  <g transform="translate(35, 25)">
    <!-- Base cylinder -->
    <rect x="3" y="0" width="24" height="115" rx="12" fill="#FF69B4"/>
    <!-- Spiral wrapping -->
    <path d="M 3 5 Q 15 -2 27 5 M 3 20 Q 15 13 27 20 M 3 35 Q 15 28 27 35 M 3 50 Q 15 43 27 50 M 3 65 Q 15 58 27 65 M 3 80 Q 15 73 27 80 M 3 95 Q 15 88 27 95 M 3 110 Q 15 103 27 110" fill="none" stroke="#00CED1" stroke-width="5" stroke-linecap="round"/>
  </g>
  <path d="M 42 142 Q 36 162 32 180" fill="none" stroke="#00CED1" stroke-width="3" stroke-linecap="round"/>
  <path d="M 46 142 Q 42 165 40 185" fill="none" stroke="#FF69B4" stroke-width="3" stroke-linecap="round"/>
  <path d="M 54 142 Q 58 165 60 185" fill="none" stroke="#00CED1" stroke-width="3" stroke-linecap="round"/>
  <path d="M 58 142 Q 64 162 68 180" fill="none" stroke="#FF69B4" stroke-width="3" stroke-linecap="round"/>
</svg>
