<svg xmlns="http://www.w3.org/2000/svg" viewBox="0 0 100 200">
  <!-- Scoubidou torsadé — rouge et blanc, effet torsion -->
  <circle cx="50" cy="15" r="10" fill="none" stroke="#C0C0C0" stroke-width="3"/>
  <g transform="translate(35, 25)">
    <!-- Twisted braid effect -->
    <path d="M 15 0 Q 25 8 15 16 Q 5 24 15 32 Q 25 40 15 48 Q 5 56 15 64 Q 25 72 15 80 Q 5 88 15 96 Q 25 104 15 112" fill="none" stroke="#E60000" stroke-width="8" stroke-linecap="round"/>
    <path d="M 15 0 Q 5 8 15 16 Q 25 24 15 32 Q 5 40 15 48 Q 25 56 15 64 Q 5 72 15 80 Q 25 88 15 96 Q 5 104 15 112" fill="none" stroke="white" stroke-width="8" stroke-linecap="round"/>
    <!-- Overlap stripes for twist illusion -->
    <path d="M 15 0 Q 25 8 15 16" fill="none" stroke="#E60000" stroke-width="5" stroke-linecap="round"/>
    <path d="M 15 32 Q 25 40 15 48" fill="none" stroke="#E60000" stroke-width="5" stroke-linecap="round"/>
    <path d="M 15 64 Q 25 72 15 80" fill="none" stroke="#E60000" stroke-width="5" stroke-linecap="round"/>
    <path d="M 15 96 Q 25 104 15 112" fill="none" stroke="#E60000" stroke-width="5" stroke-linecap="round"/>
  </g>
  <path d="M 44 140 Q 38 160 34 178" fill="none" stroke="#E60000" stroke-width="3" stroke-linecap="round"/>
  <path d="M 48 140 Q 44 165 42 182" fill="none" stroke="white" stroke-width="3" stroke-linecap="round"/>
  <path d="M 52 140 Q 56 165 58 182" fill="none" stroke="#E60000" stroke-width="3" stroke-linecap="round"/>
  <path d="M 56 140 Q 62 160 66 178" fill="none" stroke="white" stroke-width="3" stroke-linecap="round"/>
</svg>
