<svg xmlns="http://www.w3.org/2000/svg" viewBox="0 0 200 200">
  <defs>
    <linearGradient id="bg" x1="0%" y1="0%" x2="0%" y2="100%">
      <stop offset="0%" stop-color="#8b4513"/>
      <stop offset="100%" stop-color="#3a1a00"/>
    </linearGradient>
  </defs>
  <rect width="200" height="200" fill="url(#bg)"/>
  <!-- Piano keys -->
  <g transform="translate(40,55)">
    <g fill="white" stroke="#333" stroke-width="0.5">
      <rect x="0" y="0" width="17" height="50" rx="1"/><rect x="18" y="0" width="17" height="50" rx="1"/>
      <rect x="36" y="0" width="17" height="50" rx="1"/><rect x="54" y="0" width="17" height="50" rx="1"/>
      <rect x="72" y="0" width="17" height="50" rx="1"/><rect x="90" y="0" width="17" height="50" rx="1"/>
      <rect x="108" y="0" width="17" height="50" rx="1"/>
    </g>
    <g fill="#222">
      <rect x="12" y="0" width="11" height="30" rx="1"/><rect x="30" y="0" width="11" height="30" rx="1"/>
      <rect x="66" y="0" width="11" height="30" rx="1"/><rect x="84" y="0" width="11" height="30" rx="1"/>
      <rect x="102" y="0" width="11" height="30" rx="1"/>
    </g>
  </g>
  <text x="100" y="130" text-anchor="middle" font-family="Arial" font-size="9" fill="#daa520" letter-spacing="2">ALICIA KEYS</text>
  <text x="100" y="155" text-anchor="middle" font-family="Georgia,serif" font-size="16" fill="white" font-style="italic">Fallin'</text>
  <text x="100" y="175" text-anchor="middle" font-family="Arial" font-size="8" fill="#553" letter-spacing="1">SONGS IN A MINOR</text>
</svg>