<svg xmlns="http://www.w3.org/2000/svg" viewBox="0 0 200 200">
  <rect width="200" height="200" fill="#0a0a0a"/>
  <!-- Circuit board lines -->
  <g stroke="#00ff00" stroke-width="1" opacity="0.3">
    <line x1="0" y1="30" x2="60" y2="30"/>
    <line x1="60" y1="30" x2="60" y2="60"/>
    <line x1="60" y1="60" x2="100" y2="60"/>
    <line x1="140" y1="30" x2="200" y2="30"/>
    <line x1="140" y1="30" x2="140" y2="50"/>
    <line x1="140" y1="50" x2="170" y2="50"/>
    <line x1="30" y1="80" x2="30" y2="110"/>
    <line x1="30" y1="110" x2="70" y2="110"/>
    <line x1="170" y1="80" x2="170" y2="100"/>
    <line x1="130" y1="100" x2="170" y2="100"/>
  </g>
  <!-- Circuit nodes -->
  <g fill="#00ff00" opacity="0.5">
    <circle cx="60" cy="30" r="3"/>
    <circle cx="140" cy="30" r="3"/>
    <circle cx="60" cy="60" r="3"/>
    <circle cx="30" cy="110" r="3"/>
    <circle cx="170" cy="100" r="3"/>
  </g>
  <!-- Waveform (satisfaction synth) -->
  <g transform="translate(100,80)">
    <path d="M -50 0 L -40 -18 L -30 18 L -20 -18 L -10 18 L 0 -18 L 10 18 L 20 -18 L 30 18 L 40 -18 L 50 0" fill="none" stroke="#00ff00" stroke-width="2.5"/>
  </g>
  <!-- Text -->
  <text x="100" y="135" text-anchor="middle" font-family="monospace" font-size="9" fill="#00ff00" letter-spacing="2">BENNY BENASSI</text>
  <text x="100" y="160" text-anchor="middle" font-family="monospace" font-size="14" fill="#00ff00" font-weight="bold">SATISFACTION</text>
  <text x="100" y="180" text-anchor="middle" font-family="monospace" font-size="7" fill="#005500" letter-spacing="3">PUSH ME</text>
</svg>