<svg xmlns="http://www.w3.org/2000/svg" viewBox="0 0 200 200">
  <defs>
    <linearGradient id="bg" x1="0%" y1="0%" x2="100%" y2="100%">
      <stop offset="0%" stop-color="#8b6914"/>
      <stop offset="100%" stop-color="#4a3000"/>
    </linearGradient>
  </defs>
  <rect width="200" height="200" fill="url(#bg)"/>
  <!-- Spotlight burst -->
  <g stroke="#ffd700" stroke-width="1.5" opacity="0.3">
    <line x1="100" y1="30" x2="100" y2="10"/><line x1="130" y1="40" x2="145" y2="22"/>
    <line x1="145" y1="65" x2="165" y2="55"/><line x1="55" y1="65" x2="35" y2="55"/>
    <line x1="70" y1="40" x2="55" y2="22"/><line x1="140" y1="85" x2="160" y2="85"/>
    <line x1="60" y1="85" x2="40" y2="85"/>
  </g>
  <circle cx="100" cy="70" r="25" fill="#ffd700" opacity="0.15"/>
  <!-- Horn silhouette -->
  <g fill="#ffd700" opacity="0.5">
    <path d="M 85 70 L 80 60 Q 95 55 110 60 L 115 70 Q 100 65 85 70 Z"/>
    <rect x="95" y="70" width="10" height="20" rx="2"/>
  </g>
  <text x="100" y="120" text-anchor="middle" font-family="Arial" font-size="9" fill="#ffd700" letter-spacing="2">BEYONCE</text>
  <text x="100" y="142" text-anchor="middle" font-family="Georgia,serif" font-size="12" fill="white" font-style="italic">Crazy in Love</text>
  <text x="100" y="162" text-anchor="middle" font-family="Arial" font-size="8" fill="#665020" letter-spacing="1">DANGEROUSLY IN LOVE</text>
</svg>