<svg xmlns="http://www.w3.org/2000/svg" viewBox="0 0 200 200">
  <defs>
    <linearGradient id="bg" x1="0%" y1="0%" x2="100%" y2="100%">
      <stop offset="0%" stop-color="#ff69b4"/>
      <stop offset="100%" stop-color="#ff1493"/>
    </linearGradient>
  </defs>
  <rect width="200" height="200" fill="url(#bg)"/>
  <!-- Rainbow -->
  <g fill="none" stroke-width="4" opacity="0.4">
    <path d="M 30 120 Q 100 30 170 120" stroke="#ff0000"/>
    <path d="M 35 120 Q 100 38 165 120" stroke="#ff8c00"/>
    <path d="M 40 120 Q 100 46 160 120" stroke="#ffd700"/>
    <path d="M 45 120 Q 100 54 155 120" stroke="#00cc00"/>
    <path d="M 50 120 Q 100 62 150 120" stroke="#4169e1"/>
    <path d="M 55 120 Q 100 70 145 120" stroke="#8b00ff"/>
  </g>
  <!-- Stars -->
  <g fill="#fff" opacity="0.5">
    <polygon points="50,40 52,46 58,46 53,50 55,56 50,52 45,56 47,50 42,46 48,46" transform="scale(0.7) translate(20,10)"/>
    <polygon points="150,35 152,41 158,41 153,45 155,51 150,47 145,51 147,45 142,41 148,41" transform="scale(0.6) translate(90,15)"/>
    <polygon points="170,60 172,66 178,66 173,70 175,76 170,72 165,76 167,70 162,66 168,66" transform="scale(0.5) translate(150,30)"/>
  </g>
  <!-- Cloud -->
  <g fill="white" opacity="0.3">
    <ellipse cx="100" cy="95" rx="25" ry="10"/><ellipse cx="85" cy="90" rx="15" ry="10"/>
    <ellipse cx="115" cy="90" rx="15" ry="10"/>
  </g>
  <text x="100" y="145" text-anchor="middle" font-family="Arial" font-size="9" fill="white" letter-spacing="2">ILONA MITRECEY</text>
  <text x="100" y="168" text-anchor="middle" font-family="Georgia,serif" font-size="12" fill="white" font-weight="bold">Un monde parfait</text>
</svg>