<svg xmlns="http://www.w3.org/2000/svg" viewBox="0 0 200 200">
  <defs>
    <linearGradient id="bg" x1="0%" y1="0%" x2="100%" y2="100%">
      <stop offset="0%" stop-color="#4a0060"/>
      <stop offset="100%" stop-color="#1a0030"/>
    </linearGradient>
  </defs>
  <rect width="200" height="200" fill="url(#bg)"/>
  <!-- Disco ball -->
  <circle cx="100" cy="70" r="28" fill="none" stroke="#c0c0c0" stroke-width="1.5" opacity="0.5"/>
  <g fill="#fff" opacity="0.3">
    <rect x="85" y="55" width="6" height="5" rx="1"/><rect x="95" y="52" width="6" height="5" rx="1"/>
    <rect x="105" y="55" width="6" height="5" rx="1"/><rect x="80" y="65" width="6" height="5" rx="1"/>
    <rect x="90" y="62" width="6" height="5" rx="1"/><rect x="100" y="65" width="6" height="5" rx="1"/>
    <rect x="110" y="62" width="6" height="5" rx="1"/><rect x="86" y="75" width="6" height="5" rx="1"/>
    <rect x="96" y="72" width="6" height="5" rx="1"/><rect x="106" y="75" width="6" height="5" rx="1"/>
  </g>
  <line x1="100" y1="42" x2="100" y2="25" stroke="#c0c0c0" stroke-width="1"/>
  <!-- Light beams -->
  <g stroke="#ff69b4" stroke-width="1" opacity="0.2">
    <line x1="100" y1="70" x2="30" y2="150"/><line x1="100" y1="70" x2="170" y2="150"/>
    <line x1="100" y1="70" x2="60" y2="160"/><line x1="100" y1="70" x2="140" y2="160"/>
  </g>
  <text x="100" y="125" text-anchor="middle" font-family="Arial" font-size="11" fill="#ff69b4" letter-spacing="2">MODJO</text>
  <text x="100" y="148" text-anchor="middle" font-family="Georgia,serif" font-size="11" fill="white" font-style="italic">Lady (Hear Me Tonight)</text>
</svg>