<svg xmlns="http://www.w3.org/2000/svg" viewBox="0 0 200 200">
  <defs>
    <linearGradient id="bg" x1="0%" y1="0%" x2="100%" y2="100%">
      <stop offset="0%" stop-color="#006400"/>
      <stop offset="50%" stop-color="#ffd700"/>
      <stop offset="100%" stop-color="#000"/>
    </linearGradient>
  </defs>
  <rect width="200" height="200" fill="url(#bg)"/>
  <!-- Sound waves -->
  <g stroke="#fff" stroke-width="2" fill="none" opacity="0.4">
    <path d="M 60 70 Q 80 50 100 70 Q 120 90 140 70"/>
    <path d="M 50 85 Q 75 60 100 85 Q 125 110 150 85"/>
    <path d="M 60 100 Q 80 80 100 100 Q 120 120 140 100"/>
  </g>
  <!-- Palm tree -->
  <line x1="160" y1="130" x2="160" y2="90" stroke="#8B4513" stroke-width="3"/>
  <g fill="#228B22" opacity="0.5">
    <ellipse cx="150" cy="85" rx="18" ry="6" transform="rotate(-20 150 85)"/>
    <ellipse cx="170" cy="85" rx="18" ry="6" transform="rotate(20 170 85)"/>
    <ellipse cx="160" cy="80" rx="15" ry="5" transform="rotate(-5 160 80)"/>
  </g>
  <text x="100" y="148" text-anchor="middle" font-family="Arial Black,sans-serif" font-size="11" fill="#ffd700" letter-spacing="1">SEAN PAUL</text>
  <text x="100" y="170" text-anchor="middle" font-family="Georgia,serif" font-size="13" fill="white">Get Busy</text>
</svg>