<svg xmlns="http://www.w3.org/2000/svg" viewBox="0 0 200 200">
  <defs>
    <linearGradient id="bg" x1="0%" y1="0%" x2="100%" y2="100%">
      <stop offset="0%" stop-color="#b8860b"/>
      <stop offset="100%" stop-color="#ff8c00"/>
    </linearGradient>
  </defs>
  <rect width="200" height="200" fill="url(#bg)"/>
  <!-- Sun / warmth -->
  <circle cx="100" cy="70" r="30" fill="#ffd700" opacity="0.5"/>
  <g stroke="#ffd700" stroke-width="2" opacity="0.4">
    <line x1="100" y1="30" x2="100" y2="15"/>
    <line x1="120" y1="35" x2="130" y2="22"/>
    <line x1="135" y1="50" x2="148" y2="42"/>
    <line x1="135" y1="70" x2="150" y2="70"/>
    <line x1="65" y1="50" x2="52" y2="42"/>
    <line x1="80" y1="35" x2="70" y2="22"/>
    <line x1="65" y1="70" x2="50" y2="70"/>
  </g>
  <!-- Wavy lines (hips) -->
  <path d="M 40 105 Q 70 95 100 105 Q 130 115 160 105" fill="none" stroke="#fff" stroke-width="2" opacity="0.5"/>
  <path d="M 40 115 Q 70 105 100 115 Q 130 125 160 115" fill="none" stroke="#fff" stroke-width="2" opacity="0.4"/>
  <!-- Text -->
  <text x="100" y="150" text-anchor="middle" font-family="Arial" font-size="10" fill="#fff3cd" letter-spacing="2">SHAKIRA</text>
  <text x="100" y="170" text-anchor="middle" font-family="Georgia,serif" font-size="11" fill="white" font-style="italic">Whenever, Wherever</text>
  <text x="100" y="188" text-anchor="middle" font-family="Arial" font-size="8" fill="#8b6914" letter-spacing="1">LAUNDRY SERVICE</text>
</svg>