<svg xmlns="http://www.w3.org/2000/svg" viewBox="0 0 160 200">
  <defs>
    <radialGradient id="lf" cx="50%" cy="40%" r="55%">
      <stop offset="0%" stop-color="#F5F5F5"/>
      <stop offset="100%" stop-color="#D3D3D3"/>
    </radialGradient>
  </defs>
  <!-- Ears -->
  <ellipse cx="60" cy="30" rx="14" ry="40" fill="url(#lf)" stroke="#C0C0C0" stroke-width="1.5"/>
  <ellipse cx="60" cy="30" rx="8" ry="30" fill="#FFB6C1"/>
  <ellipse cx="100" cy="30" rx="14" ry="40" fill="url(#lf)" stroke="#C0C0C0" stroke-width="1.5"/>
  <ellipse cx="100" cy="30" rx="8" ry="30" fill="#FFB6C1"/>
  <!-- Head -->
  <ellipse cx="80" cy="85" rx="38" ry="32" fill="url(#lf)" stroke="#C0C0C0" stroke-width="1.5"/>
  <!-- Body -->
  <ellipse cx="80" cy="140" rx="42" ry="45" fill="url(#lf)" stroke="#C0C0C0" stroke-width="1.5"/>
  <!-- Belly -->
  <ellipse cx="80" cy="145" rx="28" ry="30" fill="white"/>
  <!-- Arms -->
  <ellipse cx="35" cy="130" rx="14" ry="22" fill="url(#lf)" stroke="#C0C0C0" stroke-width="1.5" transform="rotate(-10 35 130)"/>
  <ellipse cx="125" cy="130" rx="14" ry="22" fill="url(#lf)" stroke="#C0C0C0" stroke-width="1.5" transform="rotate(10 125 130)"/>
  <!-- Feet -->
  <ellipse cx="60" cy="182" rx="20" ry="12" fill="url(#lf)" stroke="#C0C0C0" stroke-width="1.5"/>
  <ellipse cx="100" cy="182" rx="20" ry="12" fill="url(#lf)" stroke="#C0C0C0" stroke-width="1.5"/>
  <ellipse cx="60" cy="184" rx="12" ry="7" fill="#FFB6C1"/>
  <ellipse cx="100" cy="184" rx="12" ry="7" fill="#FFB6C1"/>
  <!-- Eyes -->
  <circle cx="68" cy="80" r="5" fill="#2C1810"/>
  <circle cx="92" cy="80" r="5" fill="#2C1810"/>
  <circle cx="70" cy="78" r="2" fill="white"/>
  <circle cx="94" cy="78" r="2" fill="white"/>
  <!-- Nose -->
  <ellipse cx="80" cy="90" rx="5" ry="4" fill="#FFB6C1"/>
  <!-- Mouth -->
  <path d="M 75 94 Q 80 100 85 94" fill="none" stroke="#C0C0C0" stroke-width="1.5" stroke-linecap="round"/>
  <!-- Whiskers -->
  <line x1="55" y1="88" x2="40" y2="85" stroke="#C0C0C0" stroke-width="1"/>
  <line x1="55" y1="92" x2="38" y2="93" stroke="#C0C0C0" stroke-width="1"/>
  <line x1="105" y1="88" x2="120" y2="85" stroke="#C0C0C0" stroke-width="1"/>
  <line x1="105" y1="92" x2="122" y2="93" stroke="#C0C0C0" stroke-width="1"/>
</svg>
