<svg xmlns="http://www.w3.org/2000/svg" viewBox="0 0 200 200">
  <defs>
    <radialGradient id="fur" cx="50%" cy="40%" r="50%">
      <stop offset="0%" stop-color="#D4A574"/>
      <stop offset="100%" stop-color="#8B6914"/>
    </radialGradient>
    <radialGradient id="belly" cx="50%" cy="50%" r="50%">
      <stop offset="0%" stop-color="#F5DEB3"/>
      <stop offset="100%" stop-color="#DEB887"/>
    </radialGradient>
  </defs>
  <!-- Ears -->
  <circle cx="65" cy="35" r="25" fill="url(#fur)" stroke="#7A5C2E" stroke-width="2"/>
  <circle cx="65" cy="35" r="14" fill="#DEB887"/>
  <circle cx="135" cy="35" r="25" fill="url(#fur)" stroke="#7A5C2E" stroke-width="2"/>
  <circle cx="135" cy="35" r="14" fill="#DEB887"/>
  <!-- Head -->
  <ellipse cx="100" cy="65" rx="45" ry="40" fill="url(#fur)" stroke="#7A5C2E" stroke-width="2"/>
  <!-- Body -->
  <ellipse cx="100" cy="130" rx="50" ry="50" fill="url(#fur)" stroke="#7A5C2E" stroke-width="2"/>
  <!-- Belly -->
  <ellipse cx="100" cy="135" rx="32" ry="35" fill="url(#belly)"/>
  <!-- Arms -->
  <ellipse cx="45" cy="120" rx="18" ry="28" fill="url(#fur)" stroke="#7A5C2E" stroke-width="2" transform="rotate(-15 45 120)"/>
  <ellipse cx="155" cy="120" rx="18" ry="28" fill="url(#fur)" stroke="#7A5C2E" stroke-width="2" transform="rotate(15 155 120)"/>
  <!-- Legs -->
  <ellipse cx="75" cy="175" rx="22" ry="16" fill="url(#fur)" stroke="#7A5C2E" stroke-width="2"/>
  <ellipse cx="125" cy="175" rx="22" ry="16" fill="url(#fur)" stroke="#7A5C2E" stroke-width="2"/>
  <ellipse cx="75" cy="178" rx="14" ry="10" fill="#DEB887"/>
  <ellipse cx="125" cy="178" rx="14" ry="10" fill="#DEB887"/>
  <!-- Eyes -->
  <circle cx="85" cy="58" r="6" fill="#2C1810"/>
  <circle cx="115" cy="58" r="6" fill="#2C1810"/>
  <circle cx="87" cy="56" r="2" fill="white"/>
  <circle cx="117" cy="56" r="2" fill="white"/>
  <!-- Nose -->
  <ellipse cx="100" cy="72" rx="8" ry="6" fill="#2C1810"/>
  <ellipse cx="100" cy="70" rx="3" ry="2" fill="#5C4033" opacity="0.5"/>
  <!-- Mouth -->
  <path d="M 93 78 Q 100 86 107 78" fill="none" stroke="#2C1810" stroke-width="2" stroke-linecap="round"/>
  <!-- Bow tie -->
  <polygon points="88,95 100,102 88,109" fill="#E63946"/>
  <polygon points="112,95 100,102 112,109" fill="#E63946"/>
  <circle cx="100" cy="102" r="4" fill="#C1121F"/>
</svg>
