<svg xmlns="http://www.w3.org/2000/svg" viewBox="0 0 48 48">
  <!-- Anse -->
  <path d="M17 10 Q17 4 24 4 Q31 4 31 10" fill="none" stroke="#2255AA" stroke-width="2.5" stroke-linecap="round"/>
  <!-- Corps du cartable -->
  <rect x="6" y="12" width="36" height="28" rx="4" fill="#3377CC" stroke="#2255AA" stroke-width="1.5"/>
  <!-- Rabat -->
  <path d="M6 12 Q6 10 10 10 L38 10 Q42 10 42 12 L42 26 Q24 30 6 26 Z" fill="#4488DD" stroke="#2255AA" stroke-width="1"/>
  <!-- Poche avant -->
  <rect x="12" y="28" width="24" height="10" rx="2" fill="#2266BB" stroke="#1955AA" stroke-width="1"/>
  <!-- Fermeture du rabat -->
  <rect x="20" y="24" width="8" height="5" rx="1.5" fill="#FFD700" stroke="#CCA800" stroke-width="0.8"/>
  <circle cx="24" cy="26.5" r="1" fill="#CCA800"/>
  <!-- Bretelles visibles en haut -->
  <path d="M12 12 L10 18" stroke="#2255AA" stroke-width="2" stroke-linecap="round"/>
  <path d="M36 12 L38 18" stroke="#2255AA" stroke-width="2" stroke-linecap="round"/>
  <!-- Reflet -->
  <path d="M10 14 Q16 13 18 16" stroke="rgba(255,255,255,0.4)" stroke-width="1.5" fill="none" stroke-linecap="round"/>
</svg>