<svg xmlns="http://www.w3.org/2000/svg" viewBox="0 0 120 140">
  <!-- Fenêtre nuit -->
  <rect x="5" y="5" width="110" height="130" rx="3" fill="#8B7355" stroke="#6B4226" stroke-width="3"/>
  <!-- Vitre gauche -->
  <rect x="12" y="12" width="46" height="55" fill="#0D1B2A"/>
  <!-- Vitre droite -->
  <rect x="62" y="12" width="46" height="55" fill="#0D1B2A"/>
  <!-- Vitre bas gauche -->
  <rect x="12" y="72" width="46" height="55" fill="#0D1B2A"/>
  <!-- Vitre bas droite -->
  <rect x="62" y="72" width="46" height="55" fill="#0D1B2A"/>
  <!-- Lune -->
  <circle cx="88" cy="30" r="10" fill="#FFFACD"/>
  <circle cx="93" cy="27" r="8" fill="#0D1B2A"/>
  <!-- Étoiles -->
  <circle cx="30" cy="22" r="1.5" fill="#FFD700"/>
  <circle cx="50" cy="35" r="1" fill="#FFD700"/>
  <circle cx="22" cy="42" r="1.2" fill="#FFD700"/>
  <circle cx="75" cy="18" r="1" fill="#FFD700"/>
  <circle cx="42" cy="16" r="0.8" fill="#FFD700"/>
  <circle cx="70" cy="50" r="1.3" fill="#FFD700"/>
  <circle cx="95" cy="52" r="1" fill="#FFD700"/>
  <circle cx="25" cy="85" r="1" fill="#FFD700"/>
  <circle cx="45" cy="95" r="1.2" fill="#FFD700"/>
  <circle cx="80" cy="90" r="0.8" fill="#FFD700"/>
  <circle cx="95" cy="110" r="1" fill="#FFD700"/>
  <circle cx="30" cy="115" r="1.3" fill="#FFD700"/>
  <!-- Croisillons -->
  <line x1="58" y1="12" x2="58" y2="127" stroke="#6B4226" stroke-width="4"/>
  <line x1="12" y1="67" x2="108" y2="67" stroke="#6B4226" stroke-width="4"/>
  <!-- Poignée -->
  <rect x="54" y="82" width="3" height="14" rx="1" fill="#DAA520"/>
</svg>
